<svg aria-hidden="true" style="width:0;height:0;position:absolute;overflow:hidden" xmlns="http://www.w3.org/2000/svg"><defs><symbol id="icon-eclipse" viewBox="0 0 32 32"><path d="M32 16c0 8.837-7.163 16-16 16S0 24.837 0 16 7.163 0 16 0s16 7.163 16 16z"/></symbol><symbol id="icon-frame" viewBox="0 0 32 32"><path d="M31.6 15.44c.579-.536.523-1.363-.125-1.843L17.174 3.021a2.033 2.033 0 0 0-2.331.025l.006-.004L.5 14.162c-.637.491-.667 1.317-.069 1.84l.36.32c.595.523 1.56.587 2.152.136l1.072-.811v11.885c0 .728.701 1.32 1.563 1.32h5.592c.864 0 1.563-.592 1.563-1.32v-8.315h7.133v8.315c-.011.728.605 1.317 1.467 1.317h5.928c.861 0 1.56-.589 1.56-1.32V15.817l.664.491c.363.269 1.131.053 1.709-.485l.408-.379z"/></symbol><symbol id="icon-home" viewBox="0 0 35 32"><path d="M33.053 16c0 8.837-7.163 16-16 16s-16-7.163-16-16 7.163-16 16-16 16 7.163 16 16z"/></symbol><symbol id="icon-lapki" viewBox="0 0 49 32"><path d="M35.781 0c2.155 0 4.191.52 6.107 1.561s3.472 2.536 4.67 4.488c1.15 1.951 1.725 4.25 1.725 6.894s-.718 5.225-2.155 7.74c-.48.91-1.342 2.081-2.587 3.512a66.3 66.3 0 0 1-3.592 3.707L35.423 32l-3.234-4.813a24.187 24.187 0 0 0 5.95-4.668l.014-.015c1.724-1.821 2.586-3.49 2.586-5.008 0-.781-.192-1.41-.575-1.886-1.676 1.084-3.544 1.626-5.604 1.626-1.485 0-2.898-.412-4.239-1.236-1.389-.781-2.49-1.821-3.305-3.122-.862-1.258-1.294-2.558-1.294-3.902 0-1.518.503-2.97 1.509-4.358.958-1.387 2.227-2.514 3.808-3.382C32.572.412 34.153 0 35.781 0zM9.987 0c2.155 0 4.191.52 6.107 1.561s3.472 2.536 4.67 4.488c1.15 1.951 1.725 4.25 1.725 6.894 0 1.864-.264 3.534-.79 5.008-.527 1.518-1.437 3.1-2.73 4.748-1.246 1.561-2.419 2.862-3.52 3.902-1.102 1.084-3.018 2.883-5.749 5.398l-3.233-4.813a24.182 24.182 0 0 0 5.949-4.668l.014-.015c1.725-1.821 2.586-3.49 2.586-5.008 0-.781-.191-1.41-.574-1.886-1.677 1.084-3.544 1.626-5.604 1.626-1.485 0-2.898-.412-4.24-1.236-1.388-.781-2.49-1.821-3.304-3.122C.432 11.619 0 10.319 0 8.975c0-1.518.479-2.97 1.437-4.358s2.227-2.514 3.808-3.382C6.778.411 8.359-.001 9.987-.001z"/></symbol></defs></svg>