<!-- Generated by IcoMoon.io -->
<svg version="1.1" xmlns="http://www.w3.org/2000/svg" width="32" height="32" viewBox="0 0 32 32">
<title>howsvg3</title>
<path fill="#ffa5ba" stroke="#ffa5ba" stroke-linejoin="miter" stroke-linecap="butt" stroke-miterlimit="4" stroke-width="0.3077" d="M2.513 11.161c0.588 2.695 1.895 5.088 3.953 7.162 1.839 1.86 3.455 2.991 6.008 4.164l1.238 0.582v8.47h1.73v-7.902l0.159 0.047h0.001c0.23 0.066 0.567 0.066 0.796 0h0.001l0.159-0.047v7.902h1.73v-8.481l1.179-0.536c2.469-1.138 4.263-2.372 6.008-4.142 2.786-2.829 4.217-6.052 4.217-9.561 0.012-3.85-2.010-7-5.214-8.076-0.689-0.239-1.054-0.274-2.316-0.262M2.513 11.161l13.614-8.305-0.097-0.073M2.513 11.161c-0.134-0.615-0.202-1.455-0.205-2.276s0.060-1.636 0.194-2.201c0.722-3.188 2.943-5.549 5.82-6.152M2.513 11.161l5.809-10.629M22.163 0.482v0zM22.163 0.482c-0.658 0.006-1.070 0.020-1.444 0.073-0.376 0.054-0.709 0.146-1.208 0.303h-0.002c-1.188 0.386-2.356 0.994-3.132 1.632l-0.001 0.001-0.346 0.291M16.030 2.783l-0.543-0.401c-1.673-1.231-3.385-1.83-5.396-1.911h-0.001c-0.163-0.006-0.354-0.009-0.547-0.009-0.172 0-0.343 0.003-0.513 0.008l0.025-0.001c-0.313 0.010-0.586 0.031-0.733 0.063M16.030 2.783l-7.708-2.251M15.006 4.233h-0.001c-0.238-0.226-0.669-0.537-1.14-0.833-0.47-0.295-0.968-0.566-1.335-0.718-0.416-0.159-0.919-0.303-1.437-0.408l-0.064-0.011c-1.975-0.362-3.489 0.022-4.825 1.21l-0.001 0.001c-0.282 0.246-0.581 0.571-0.796 0.843-0.079 0.097-0.155 0.205-0.224 0.317l-0.008 0.013c-0.203-0.019 0.188 0.050 0.58 0.117l0.572 0.081c1.231 0.192 2.186 0.449 3.209 0.943 1.020 0.491 2.103 1.214 3.593 2.329l0.001 0.001c0.605 0.465 1.626 1.059 2.651 1.541l0.002 0.001c0.458 0.226 0.898 0.452 1.238 0.636 0.17 0.092 0.316 0.175 0.428 0.242 0.055 0.034 0.103 0.065 0.142 0.091 0.036 0.025 0.073 0.052 0.098 0.080 0.128 0.137 0.234 0.274 0.318 0.447s0.142 0.372 0.182 0.631c0.081 0.512 0.098 1.281 0.098 2.57 0 1.17 0.003 1.785 0.033 2.135 0.015 0.175 0.036 0.271 0.061 0.332 0.022 0.053 0.055 0.099 0.096 0.134l0 0c0.246 0.24 0.583 0.23 0.762 0.031l0.004-0.004c0.049-0.052 0.097-0.135 0.125-0.456 0.027-0.32 0.033-0.837 0.033-1.723 0-1.172 0.029-1.886 0.16-2.378 0.066-0.25 0.16-0.448 0.292-0.622 0.13-0.172 0.293-0.314 0.487-0.459l0.002-0.001c0.197-0.142 0.368-0.235 0.647-0.308 0.271-0.071 0.642-0.124 1.24-0.193 1.865-0.207 2.942-0.447 4.231-0.937 0.404-0.154 0.703-0.269 0.927-0.372 0.225-0.103 0.357-0.188 0.439-0.273 0.076-0.079 0.115-0.168 0.134-0.302 0.020-0.142 0.014-0.324 0.002-0.588v-0.003c-0.012-0.46-0.128-1.233-0.255-1.706v-0.001c-0.709-2.682-2.922-4.56-5.317-4.56-1.787 0-3.967 0.839-5.314 2.060l-0.001 0.001c-0.22 0.197-0.405 0.352-0.572 0.459s-0.327 0.175-0.495 0.182c-0.17 0.007-0.327-0.050-0.486-0.149-0.156-0.098-0.323-0.242-0.517-0.425zM10.859 8.598l-0.001-0.001c-1.232-0.914-2.577-1.584-3.762-1.878-0.503-0.123-1.117-0.227-1.743-0.29l-0.060-0.005c-0.213-0.024-0.461-0.038-0.712-0.039h-0.001c-0 0-0.001 0-0.002 0-0.079 0-0.155 0.007-0.23 0.020l0.008-0.001c-0.049 0.095-0.1 0.264-0.148 0.496-0.052 0.252-0.095 0.561-0.127 0.892-0.063 0.665-0.078 1.407-0.020 1.948 0.316 2.926 1.588 5.398 4.031 7.743h0.001c1.927 1.865 4.326 3.319 7.044 4.236l0.002 0.001 0.862 0.305 0.875-0.305c2.542-0.871 5.036-2.326 6.844-4.018 1.246-1.168 1.889-1.964 2.711-3.37v-0.001c0.255-0.428 0.604-1.204 0.874-1.892 0.135-0.343 0.249-0.662 0.32-0.9 0.026-0.086 0.046-0.158 0.058-0.217-0.042 0.011-0.090 0.025-0.145 0.041-0.201 0.060-0.473 0.151-0.767 0.26h-0.001c-1.188 0.433-2.967 0.816-4.401 0.944h-0.001l-0.063 0.005c-0.323 0.026-0.548 0.045-0.716 0.089-0.166 0.043-0.252 0.106-0.311 0.215-0.067 0.126-0.107 0.329-0.127 0.677-0.018 0.322-0.018 0.746-0.018 1.313v0.121c0 1.098-0.014 1.746-0.096 2.184-0.035 0.208-0.101 0.394-0.194 0.563l0.005-0.009c-0.086 0.154-0.196 0.283-0.327 0.417-0.235 0.246-0.47 0.425-0.734 0.54s-0.546 0.164-0.871 0.164c-0.5 0-0.927-0.099-1.284-0.317s-0.63-0.546-0.835-0.983c-0.105-0.223-0.164-0.436-0.198-0.864-0.033-0.423-0.042-1.067-0.042-2.156 0-0.906-0.009-1.537-0.031-1.957-0.007-0.174-0.022-0.336-0.046-0.495l0.003 0.025c-0.007-0.045-0.015-0.085-0.027-0.123l0.002 0.006c-0.003-0.011-0.007-0.020-0.011-0.028l0 0.001c-0.027-0.023-0.057-0.045-0.088-0.066l-0.003-0.002c-0.059-0.038-0.133-0.082-0.208-0.122l-0.017-0.008c-0.163-0.089-0.378-0.193-0.598-0.288l-0.057-0.022c-1.006-0.42-2.332-1.164-3.137-1.761-0.295-0.219-0.959-0.703-1.481-1.084h-0.001zM4.336 6.407c-0.002 0.001-0.002 0.001 0 0zM4.373 6.37l-0.001 0.001 0.001-0.002z"></path>
</svg>
