<!-- Generated by IcoMoon.io -->
<svg version="1.1" xmlns="http://www.w3.org/2000/svg" width="32" height="32" viewBox="0 0 32 32">
<title>sliderhouse</title>
<path fill="#d31342" d="M31.6 15.44c0.579-0.536 0.523-1.363-0.125-1.843l-14.301-10.576c-0.321-0.221-0.719-0.354-1.147-0.354-0.442 0-0.85 0.141-1.184 0.379l0.006-0.004-14.349 11.12c-0.637 0.491-0.667 1.317-0.069 1.84l0.36 0.32c0.595 0.523 1.56 0.587 2.152 0.136l1.072-0.811v11.885c0 0.728 0.701 1.317 1.563 1.317h5.592c0.864 0 1.563-0.587 1.563-1.317v-8.315h7.133v8.315c-0.011 0.728 0.605 1.317 1.467 1.317h5.928c0.861 0 1.56-0.589 1.56-1.32v-11.715l0.664 0.491c0.363 0.269 1.131 0.053 1.709-0.485l0.408-0.379z"></path>
</svg>
