<svg aria-hidden="true" style="position: absolute; width: 0; height: 0; overflow: hidden;" version="1.1" xmlns="http://www.w3.org/2000/svg" xmlns:xlink="http://www.w3.org/1999/xlink">
<defs>
<symbol id="icon-eclipse" viewBox="0 0 32 32">
<path d="M32 16c0 8.837-7.163 16-16 16s-16-7.163-16-16c0-8.837 7.163-16 16-16s16 7.163 16 16z"></path>
</symbol>
<symbol id="icon-frame" viewBox="0 0 32 32">
<path d="M31.6 15.44c0.579-0.536 0.523-1.363-0.125-1.843l-14.301-10.576c-0.321-0.221-0.719-0.354-1.147-0.354-0.442 0-0.85 0.141-1.184 0.379l0.006-0.004-14.349 11.12c-0.637 0.491-0.667 1.317-0.069 1.84l0.36 0.32c0.595 0.523 1.56 0.587 2.152 0.136l1.072-0.811v11.885c0 0.728 0.701 1.32 1.563 1.32h5.592c0.864 0 1.563-0.592 1.563-1.32v-8.315h7.133v8.315c-0.011 0.728 0.605 1.317 1.467 1.317h5.928c0.861 0 1.56-0.589 1.56-1.32v-11.712l0.664 0.491c0.363 0.269 1.131 0.053 1.709-0.485l0.408-0.379z"></path>
</symbol>
<symbol id="icon-home" viewBox="0 0 35 32">
<path d="M33.053 16c0 8.837-7.163 16-16 16s-16-7.163-16-16c0-8.837 7.163-16 16-16s16 7.163 16 16z"></path>
</symbol>
<symbol id="icon-lapki" viewBox="0 0 49 32">
<path d="M35.781 0c2.155 0 4.191 0.52 6.107 1.561s3.472 2.536 4.67 4.488c1.15 1.951 1.725 4.25 1.725 6.894s-0.718 5.225-2.155 7.74c-0.48 0.91-1.342 2.081-2.587 3.512-1.293 1.43-2.49 2.666-3.592 3.707l-4.526 4.098-3.234-4.813c2.297-1.29 4.262-2.848 5.95-4.668l0.014-0.015c1.724-1.821 2.586-3.49 2.586-5.008 0-0.781-0.192-1.41-0.575-1.886-1.676 1.084-3.544 1.626-5.604 1.626-1.485 0-2.898-0.412-4.239-1.236-1.389-0.781-2.49-1.821-3.305-3.122-0.862-1.258-1.294-2.558-1.294-3.902 0-1.518 0.503-2.97 1.509-4.358 0.958-1.387 2.227-2.514 3.808-3.382 1.533-0.824 3.114-1.236 4.742-1.236zM9.987 0c2.155 0 4.191 0.52 6.107 1.561s3.472 2.536 4.67 4.488c1.15 1.951 1.725 4.25 1.725 6.894 0 1.864-0.264 3.534-0.79 5.008-0.527 1.518-1.437 3.1-2.73 4.748-1.246 1.561-2.419 2.862-3.52 3.902-1.102 1.084-3.018 2.883-5.749 5.398l-3.233-4.813c2.296-1.29 4.262-2.848 5.949-4.668l0.014-0.015c1.725-1.821 2.586-3.49 2.586-5.008 0-0.781-0.191-1.41-0.574-1.886-1.677 1.084-3.544 1.626-5.604 1.626-1.485 0-2.898-0.412-4.24-1.236-1.388-0.781-2.49-1.821-3.304-3.122-0.862-1.258-1.294-2.558-1.294-3.902 0-1.518 0.479-2.97 1.437-4.358s2.227-2.514 3.808-3.382c1.533-0.824 3.114-1.236 4.742-1.236z"></path>
</symbol>
</defs>
</svg>
