<!-- Generated by IcoMoon.io -->
<svg version="1.1" xmlns="http://www.w3.org/2000/svg" width="32" height="32" viewBox="0 0 32 32">
<title>right-arrow-svg</title>
<path d="M27.218 21.532c1.759-1.184 5.58-3.585 4.633-6.189-1.082-2.908-4.971-5.208-7.406-6.865-1.387-0.947-6.121-4.329-7.778-2.266-0.101 0.101-0.135 0.271-0.101 0.406-0.676 1.387-0.271 3.551-0.271 5.039v0.812c-4.971-0.034-10.382-1.657-15.219-0.237-0.304 0.101-0.44 0.304-0.473 0.507-0.034 0-0.068 0.034-0.101 0.034-0.744 0.44-0.44 2.131-0.44 2.875 0 1.285-0.034 2.638 0.203 3.889 0.068 0.304 0.271 0.473 0.507 0.507 0.135 0.169 0.271 0.237 0.473 0.237 5.107-0.068 10.112-0.676 15.219-0.372 0 1.623-0.068 3.247-0.304 4.87-0.034 0.203 0.034 0.372 0.101 0.507-0.338 0.406 0.034 1.251 0.744 1.15 3.585-0.507 7.271-2.942 10.213-4.904z"></path>
</svg>
